<?xml version="1.0"?>
<svg width="256" height="256" xmlns="http://www.w3.org/2000/svg" xmlns:svg="http://www.w3.org/2000/svg" preserveAspectRatio="xMidYMid meet" version="1.0">
 <g class="layer">
  <title>Layer 1</title>
  <g fill="#000000" id="svg_1" transform="translate(0.000000,256.000000) scale(0.100000,-0.100000)">
   <path d="m925,2293c-119,-17 -272,-81 -372,-157c-81,-62 -144,-140 -198,-250c-38,-77 -50,-93 -97,-123c-76,-51 -105,-80 -149,-147c-104,-158 -123,-373 -52,-571c84,-231 278,-347 487,-291l63,17l314,-176c535,-301 693,-385 726,-385c36,0 285,123 508,251c189,108 273,163 338,221l47,43l2,300c2,165 -1,309 -5,321c-7,20 -97,67 -277,147l-55,24l-33,99c-43,128 -97,241 -122,254c-36,19 -88,-19 -145,-107c-15,-24 -31,-43 -35,-43c-17,0 -92,86 -151,173c-186,272 -421,411 -687,406c-43,-1 -90,-4 -107,-6zm323,-58c159,-51 308,-170 435,-349c39,-55 86,-117 105,-138c33,-37 33,-37 10,-42c-13,-2 -51,-9 -86,-15c-35,-7 -90,-24 -124,-38c-59,-26 -60,-26 -71,-7c-5,10 -36,45 -67,77c-41,42 -64,57 -84,57c-48,0 -64,-17 -86,-87c-40,-129 -68,-501 -37,-491c8,3 14,43 20,124c15,239 53,424 87,424c29,0 75,-37 116,-93c25,-34 47,-64 49,-65c2,-2 45,13 97,34c77,31 109,38 185,42l93,5l26,45c33,57 92,122 110,122c19,0 66,-96 113,-231c21,-63 55,-151 75,-196c51,-114 50,-120 -23,-125c-86,-6 -155,-55 -176,-125c-9,-32 22,-31 34,0c22,58 112,103 189,94c84,-9 152,-114 123,-189c-14,-38 -54,-62 -88,-53c-39,9 -93,70 -93,105c0,16 -3,31 -8,34c-4,2 -40,-16 -80,-40c-72,-44 -73,-44 -104,-28c-50,26 -150,16 -231,-24c-65,-32 -147,-109 -147,-138c0,-25 18,-15 66,36c65,70 140,105 226,105c57,0 70,-4 93,-25c79,-73 71,-195 -15,-221c-33,-10 -43,-9 -64,5c-14,9 -32,29 -40,44c-23,44 -82,96 -101,88c-14,-5 -15,-9 -6,-20c10,-12 0,-21 -52,-50c-35,-20 -73,-36 -85,-36c-11,0 -130,55 -264,123c-177,89 -242,126 -239,137c21,77 13,115 -36,164c-91,91 -218,111 -310,49c-37,-25 -38,-25 -68,-8c-16,10 -118,62 -225,117l-195,99l-23,-28c-33,-41 -62,-145 -62,-222c1,-279 205,-438 373,-291c30,26 61,72 98,142c66,126 108,171 176,187c85,21 190,-21 233,-92c28,-45 25,-78 -8,-110c-34,-33 -43,-33 -68,-6c-10,12 -34,28 -52,36c-30,12 -37,12 -80,-7c-70,-31 -90,-55 -142,-166c-29,-61 -60,-111 -79,-126c-88,-75 -246,-94 -358,-43c-155,69 -253,255 -253,479c0,184 64,326 193,427c27,22 52,39 57,39c4,0 7,-21 6,-47c-2,-76 18,-66 32,17c42,234 198,412 442,501c150,54 324,60 468,14zm-769,-833c90,-46 181,-94 202,-107l37,-24l-54,-102c-73,-135 -87,-154 -137,-178c-153,-74 -279,56 -281,289c-1,84 2,102 26,153c15,32 31,57 35,55c5,-2 82,-41 172,-86zm1929,-12c74,-34 85,-45 54,-54c-10,-4 -45,-22 -76,-41c-46,-28 -62,-33 -77,-24c-28,15 -23,25 21,43c22,9 40,23 40,31c0,19 -8,19 -54,0c-32,-13 -36,-14 -36,0c0,8 14,21 30,30c55,28 28,46 -32,20c-13,-5 -21,2 -32,30c-9,21 -16,39 -16,41c0,4 21,-6 178,-76zm99,-362l-4,-293l-81,-65c-110,-88 -698,-420 -745,-420c-10,0 -16,16 -20,48c-12,91 -20,379 -13,444l7,67l69,40c38,23 77,41 87,41c11,0 26,-15 38,-37c48,-89 169,-97 218,-14c21,36 22,110 2,158c-8,19 -15,39 -15,44c0,9 89,64 93,58c60,-92 95,-119 154,-119c88,0 130,113 80,212l-23,46l70,41c39,23 75,41 79,41c5,0 7,-132 4,-292zm-1519,61c28,-25 41,-30 66,-25c17,4 36,7 41,7c6,1 73,-33 150,-75c76,-41 191,-99 255,-127l115,-52l-3,-171c-2,-94 1,-220 6,-281c5,-60 8,-111 6,-113c-1,-2 -31,11 -65,29c-91,45 -889,489 -907,504c-2,2 16,23 40,47c29,29 52,66 72,116c31,79 63,125 111,153c43,27 72,24 113,-12z" fill="#adbac7" id="svg_2"/>
   <path d="m1997,1382c-33,-36 -16,-92 28,-92c30,0 45,19 45,57c0,22 -6,36 -19,43c-27,14 -35,13 -54,-8z" fill="#adbac7" id="svg_3"/>
   <path d="m1573,1264c-15,-24 -15,-29 -2,-53c10,-17 23,-26 39,-26c16,0 29,9 39,26c13,24 13,29 -2,53c-22,33 -52,33 -74,0z" fill="#adbac7" id="svg_4"/>
   <path d="m1463,1119c-52,-10 -133,-45 -133,-57c0,-19 14,-21 42,-6c17,9 58,21 92,28c38,8 61,18 61,26c0,18 -12,19 -62,9z" fill="#adbac7" id="svg_5"/>
   <path d="m1518,1060c-46,-14 -128,-63 -128,-77c0,-19 17,-16 57,8c19,12 53,27 76,34c23,7 42,18 42,25c0,17 -14,20 -47,10z" fill="#adbac7" id="svg_6"/>
  </g>
 </g>
</svg>